<svg xmlns="http://www.w3.org/2000/svg" xmlns:xlink="http://www.w3.org/1999/xlink" width="495" height="99" viewBox="0 0 495 99">
  <defs>
    <style>
      .cls-1 {
        fill-rule: evenodd;
        filter: url(#filter);
      }
    </style>
    <filter id="filter" x="4.313" y="29.656" width="486.375" height="39.719" filterUnits="userSpaceOnUse">
      <feFlood result="flood"/>
      <feComposite result="composite" operator="in" in2="SourceGraphic"/>
      <feBlend result="blend" in2="SourceGraphic"/>
    </filter>
  </defs>
  <path id="STUDENT_SURVIVAL_STORE" data-name="STUDENT SURVIVAL STORE" class="cls-1" d="M4.477,39.4a12.219,12.219,0,0,0,.942,4.931A14.148,14.148,0,0,0,7.69,48.015a47.068,47.068,0,0,0,3.49,3.518,26.563,26.563,0,0,1,3.906,4.155,7.169,7.169,0,0,1,1.3,4.266q0,3.768-3.158,3.767t-3.158-3.767v-2.77H4.311v2.382q0,4.71,2.327,7.23T13.4,69.317q4.432,0,6.759-2.521t2.327-7.23a12.236,12.236,0,0,0-.942-4.931,14.185,14.185,0,0,0-2.271-3.684,47.222,47.222,0,0,0-3.49-3.518,26.476,26.476,0,0,1-3.906-4.155,7.16,7.16,0,0,1-1.3-4.266,4.452,4.452,0,0,1,.776-2.909,2.812,2.812,0,0,1,2.271-.914,2.813,2.813,0,0,1,2.271.914,4.457,4.457,0,0,1,.776,2.909v1.607h5.762V39.4q0-4.708-2.271-7.23t-6.7-2.521q-4.433,0-6.7,2.521T4.477,39.4h0ZM26.97,30.092v5.54h6.371V68.874h6.094V35.632h6.371v-5.54H26.97Zm30.083,0H50.959v29.53q0,4.71,2.327,7.23t6.759,2.521q4.432,0,6.759-2.521t2.327-7.23V30.092H63.369V60.009q0,3.768-3.158,3.767t-3.158-3.767V30.092Zm19,0V68.874H85.7q4.542,0,6.814-2.438t2.272-7.147V39.677q0-4.708-2.272-7.147T85.7,30.092h-9.64Zm6.094,5.54h3.435a2.946,2.946,0,0,1,2.3.886,4.233,4.233,0,0,1,.8,2.881V59.566a4.231,4.231,0,0,1-.8,2.881,2.943,2.943,0,0,1-2.3.886H82.15v-27.7Zm25.374,10.8v-10.8H118.05v-5.54H101.429V68.874H118.05v-5.54H107.524V51.976h8.366v-5.54h-8.366Zm22.493-5.651,7.59,28.089h6.261V30.092h-5.43V53.306l-6.26-23.214h-7.646V68.874h5.485V40.785Zm19.224-10.693v5.54h6.371V68.874h6.094V35.632h6.372v-5.54H149.241ZM184.088,39.4a12.227,12.227,0,0,0,.942,4.931,14.144,14.144,0,0,0,2.272,3.684,47.055,47.055,0,0,0,3.49,3.518,26.536,26.536,0,0,1,3.906,4.155,7.171,7.171,0,0,1,1.3,4.266q0,3.768-3.158,3.767t-3.158-3.767v-2.77h-5.762v2.382q0,4.71,2.327,7.23t6.759,2.521q4.432,0,6.759-2.521t2.327-7.23a12.229,12.229,0,0,0-.942-4.931,14.181,14.181,0,0,0-2.271-3.684,47.264,47.264,0,0,0-3.491-3.518,26.47,26.47,0,0,1-3.9-4.155,7.155,7.155,0,0,1-1.3-4.266,4.456,4.456,0,0,1,.775-2.909,3.279,3.279,0,0,1,4.543,0,4.455,4.455,0,0,1,.776,2.909v1.607h5.762V39.4q0-4.708-2.272-7.23t-6.7-2.521q-4.434,0-6.7,2.521t-2.272,7.23h0Zm30.084-9.308h-6.095v29.53q0,4.71,2.327,7.23t6.759,2.521q4.432,0,6.759-2.521t2.327-7.23V30.092h-5.762V60.009q0,3.768-3.158,3.767t-3.157-3.767V30.092Zm31.745,38.782h6.205a6.726,6.726,0,0,1-.554-2.022,26.007,26.007,0,0,1-.111-2.687V58.181a12.863,12.863,0,0,0-.942-5.291,5.619,5.619,0,0,0-3.1-2.964q3.988-1.883,3.989-7.867V39.012q0-4.542-2.161-6.731t-6.87-2.188h-9.2V68.874h6.095V53.084h2.1a3.745,3.745,0,0,1,3.047,1.136,5.983,5.983,0,0,1,.942,3.8v6.094a26.375,26.375,0,0,0,.111,2.992,8.79,8.79,0,0,0,.443,1.773h0Zm-6.648-33.241h2.936a2.827,2.827,0,0,1,2.355.942,4.928,4.928,0,0,1,.748,3.047v3.823a4.447,4.447,0,0,1-.915,3.158,3.654,3.654,0,0,1-2.742.942h-2.382V35.632ZM267.3,61.727l-4.654-31.635H256.5l5.983,38.782h9.086l5.984-38.782h-5.6Zm15.845-31.635V68.874h6.094V30.092h-6.094Zm22.492,31.635-4.653-31.635h-6.15l5.983,38.782H309.9l5.984-38.782h-5.6Zm34.184,7.147-6.2-38.782H324.7l-6.2,38.782h5.6l1.053-7.036h7.479l1.053,7.036h6.15Zm-13.906-12.3,2.936-19.612,2.936,19.612h-5.872Zm19.5-26.482V68.874H361.54v-5.54H351.513V30.092h-6.095ZM377.551,39.4a12.227,12.227,0,0,0,.942,4.931,14.144,14.144,0,0,0,2.272,3.684,46.862,46.862,0,0,0,3.49,3.518,26.584,26.584,0,0,1,3.906,4.155,7.171,7.171,0,0,1,1.3,4.266q0,3.768-3.158,3.767t-3.158-3.767v-2.77h-5.762v2.382q0,4.71,2.327,7.23t6.759,2.521q4.433,0,6.759-2.521t2.327-7.23a12.229,12.229,0,0,0-.942-4.931,14.181,14.181,0,0,0-2.271-3.684,47.264,47.264,0,0,0-3.491-3.518,26.532,26.532,0,0,1-3.906-4.155,7.162,7.162,0,0,1-1.3-4.266,4.45,4.45,0,0,1,.776-2.909,3.279,3.279,0,0,1,4.543,0,4.455,4.455,0,0,1,.776,2.909v1.607H395.5V39.4q0-4.708-2.272-7.23t-6.7-2.521q-4.432,0-6.7,2.521t-2.272,7.23h0Zm22.493-9.308v5.54h6.371V68.874h6.095V35.632h6.371v-5.54H400.044ZM423.811,39.4V59.566q0,4.654,2.383,7.2t6.869,2.548q4.488,0,6.87-2.548t2.383-7.2V39.4q0-4.654-2.383-7.2t-6.87-2.548q-4.486,0-6.869,2.548t-2.383,7.2h0Zm6.094,20.554V39.012q0-3.823,3.158-3.823t3.158,3.823V59.954q0,3.823-3.158,3.823t-3.158-3.823h0Zm31.857,8.92h6.2a6.7,6.7,0,0,1-.554-2.022,25.726,25.726,0,0,1-.111-2.687V58.181a12.863,12.863,0,0,0-.942-5.291,5.619,5.619,0,0,0-3.1-2.964q3.988-1.883,3.989-7.867V39.012q0-4.542-2.161-6.731t-6.87-2.188h-9.2V68.874h6.094V53.084h2.106a3.746,3.746,0,0,1,3.047,1.136,5.989,5.989,0,0,1,.942,3.8v6.094a26.375,26.375,0,0,0,.111,2.992,8.79,8.79,0,0,0,.443,1.773h0Zm-6.649-33.241h2.937a2.824,2.824,0,0,1,2.354.942,4.922,4.922,0,0,1,.748,3.047v3.823a4.447,4.447,0,0,1-.914,3.158,3.654,3.654,0,0,1-2.742.942h-2.383V35.632Zm25.042,10.8v-10.8h10.526v-5.54h-16.62V68.874h16.62v-5.54H480.155V51.976h8.366v-5.54h-8.366Z"/>
</svg>
