<svg xmlns="http://www.w3.org/2000/svg" xmlns:xlink="http://www.w3.org/1999/xlink" width="1463.126" height="119.5" viewBox="0 0 1463.126 119.5">
  <defs>
    <style>
      .cls-1 {
        fill-rule: evenodd;
        filter: url(#filter);
      }
    </style>
    <filter id="filter" x="3.344" y="34.5" width="1463.126" height="119.5" filterUnits="userSpaceOnUse">
      <feFlood result="flood" flood-color="#fff"/>
      <feComposite result="composite" operator="in" in2="SourceGraphic"/>
      <feBlend result="blend" in2="SourceGraphic"/>
    </filter>
  </defs>
  <path id="STUDENT_SURVIVAL_STORE" data-name="STUDENT SURVIVAL STORE" class="cls-1" d="M3.834,63.819A36.758,36.758,0,0,0,6.667,78.653,42.556,42.556,0,0,0,13.5,89.736,141.557,141.557,0,0,0,24,100.319a79.911,79.911,0,0,1,11.75,12.5,21.564,21.564,0,0,1,3.917,12.833q0,11.337-9.5,11.334t-9.5-11.334v-8.333H3.334v7.167q0,14.168,7,21.75t20.333,7.583Q44,153.819,51,146.236t7-21.75a36.816,36.816,0,0,0-2.833-14.834,42.662,42.662,0,0,0-6.833-11.083,142.049,142.049,0,0,0-10.5-10.583,79.657,79.657,0,0,1-11.75-12.5,21.541,21.541,0,0,1-3.917-12.833q0-6,2.333-8.75t6.833-2.75q4.5,0,6.833,2.75t2.333,8.75v4.833H57.834V63.819q0-14.164-6.833-21.75T30.834,34.486q-13.336,0-20.167,7.583T3.834,63.819h0Zm67.665-28V52.486H90.666v100H109v-100h19.167V35.819H71.5Zm90.5,0H143.664v88.833q0,14.169,7,21.75T171,153.986q13.332,0,20.334-7.584t7-21.75V35.819H181v90q0,11.336-9.5,11.333T162,125.819v-90Zm57.166,0V152.486h29q13.664,0,20.5-7.334t6.833-21.5v-59q0-14.164-6.833-21.5t-20.5-7.333h-29ZM237.5,52.486H247.83a8.863,8.863,0,0,1,6.916,2.667q2.415,2.668,2.417,8.667v60.667q0,6-2.417,8.666a8.853,8.853,0,0,1-6.916,2.667H237.5V52.486Zm76.332,32.5v-32.5H345.5V35.819h-50V152.486h50V135.819H313.828V101.652H339V84.986H313.828Zm67.666-17,22.833,84.5h18.834V35.819H406.827v69.833L387.994,35.819h-23V152.486h16.5v-84.5Zm57.831-32.167V52.486h19.167v100h18.333v-100h19.167V35.819H439.325Zm104.831,28a36.769,36.769,0,0,0,2.833,14.833,42.546,42.546,0,0,0,6.834,11.083,141.285,141.285,0,0,0,10.5,10.583,79.93,79.93,0,0,1,11.75,12.5,21.566,21.566,0,0,1,3.916,12.833q0,11.337-9.5,11.334t-9.5-11.334v-8.333H543.656v7.167q0,14.168,7,21.75t20.333,7.583q13.332,0,20.334-7.583t7-21.75a36.816,36.816,0,0,0-2.834-14.834,42.637,42.637,0,0,0-6.833-11.083,142.19,142.19,0,0,0-10.5-10.583,79.643,79.643,0,0,1-11.75-12.5,21.541,21.541,0,0,1-3.917-12.833q0-6,2.334-8.75t6.833-2.75q4.5,0,6.833,2.75t2.334,8.75v4.833h17.333V63.819q0-14.164-6.833-21.75t-20.167-7.583q-13.336,0-20.167,7.583t-6.833,21.75h0Zm90.5-28H616.321v88.833q0,14.169,7,21.75t20.334,7.584q13.332,0,20.333-7.584t7-21.75V35.819H653.655v90q0,11.336-9.5,11.333t-9.5-11.333v-90Zm95.5,116.667H748.82a20.2,20.2,0,0,1-1.666-6.084,77.829,77.829,0,0,1-.334-8.083v-18q0-9.664-2.833-15.917a16.907,16.907,0,0,0-9.333-8.916q12-5.664,12-23.667V62.653q0-13.664-6.5-20.25t-20.667-6.583H691.821V152.486h18.333v-47.5h6.333q6.333,0,9.167,3.416t2.833,11.417v18.333a80.044,80.044,0,0,0,.333,9,26.672,26.672,0,0,0,1.334,5.334h0Zm-20-100h8.833q4.833,0,7.083,2.833t2.25,9.167v11.5q0,6.668-2.75,9.5t-8.25,2.833h-7.166V52.486Zm84.332,78.5-14-95.167h-18.5l18,116.667h27.333l18-116.667H808.486Zm47.666-95.167V152.486h18.333V35.819H842.152Zm67.664,95.167-14-95.167h-18.5l18,116.667h27.333l18-116.667H923.816Zm102.834,21.5L993.983,35.819H967.149L948.483,152.486h16.833l3.167-21.167h22.5l3.166,21.167h18.5Zm-41.834-37,8.833-59,8.834,59H970.816Zm58.664-79.667V152.486h48.5V135.819h-30.16v-100h-18.34Zm96.67,28a36.769,36.769,0,0,0,2.83,14.833,42.78,42.78,0,0,0,6.83,11.083,142.85,142.85,0,0,0,10.5,10.583,79.882,79.882,0,0,1,11.75,12.5,21.562,21.562,0,0,1,3.92,12.833q0,11.337-9.5,11.334t-9.5-11.334v-8.333h-17.33v7.167q0,14.168,7,21.75t20.33,7.583q13.335,0,20.33-7.583t7-21.75a36.782,36.782,0,0,0-2.83-14.834,42.819,42.819,0,0,0-6.83-11.083,143.376,143.376,0,0,0-10.5-10.583,79.4,79.4,0,0,1-11.75-12.5,21.489,21.489,0,0,1-3.92-12.833q0-6,2.33-8.75t6.84-2.75c3,0,5.27.917,6.83,2.75s2.33,4.75,2.33,8.75v4.833h17.34V63.819q0-14.164-6.84-21.75-6.825-7.582-20.16-7.583t-20.17,7.583q-6.84,7.586-6.83,21.75h0Zm67.66-28V52.486h19.17v100h18.33v-100h19.17V35.819h-56.67Zm71.5,28v60.667q0,14,7.17,21.666,7.155,7.668,20.66,7.667t20.67-7.667q7.17-7.663,7.17-21.666V63.819q0-14-7.17-21.667t-20.67-7.667q-13.5,0-20.66,7.667t-7.17,21.667h0Zm18.33,61.833v-63q0-11.5,9.5-11.5t9.5,11.5v63q0,11.5-9.5,11.5t-9.5-11.5h0Zm95.84,26.834h18.66a20.156,20.156,0,0,1-1.66-6.084,75.933,75.933,0,0,1-.34-8.083v-18q0-9.664-2.83-15.917a16.911,16.911,0,0,0-9.33-8.916q12-5.664,12-23.667V62.653q0-13.664-6.5-20.25t-20.67-6.583h-27.67V152.486h18.34v-47.5h6.33q6.33,0,9.17,3.416,2.82,3.418,2.83,11.417v18.333a81.018,81.018,0,0,0,.33,9,26.373,26.373,0,0,0,1.34,5.334h0Zm-20-100h8.83q4.83,0,7.08,2.833t2.25,9.167v11.5q0,6.668-2.75,9.5t-8.25,2.833h-7.16V52.486Zm75.33,32.5v-32.5h31.66V35.819h-50V152.486h50V135.819h-31.66V101.652h25.16V84.986h-25.16Z" transform="translate(-3.344 -34.5)"/>
</svg>
